<?xml version="1.0" encoding="iso-8859-1"?>
<!-- Generator: Adobe Illustrator 19.0.0, SVG Export Plug-In . SVG Version: 6.00 Build 0)  -->
<svg version="1.1" id="Capa_1" xmlns="http://www.w3.org/2000/svg" xmlns:xlink="http://www.w3.org/1999/xlink" x="0px" y="0px"
	 viewBox="0 0 512 512" style="enable-background:new 0 0 512 512;" xml:space="preserve">
<g>
	<g>
		<path d="M381,35.5v94.461C352.766,91.511,307.253,66.5,256,66.5c-51.252,0-96.766,25.011-125,63.461V35.5H0v441h131v-30h250v30
			h131v-441H381z M101,446.5H30v-381h71V446.5z M171,416.5h-40v-195c0-36.128,15.412-68.719,40-91.561V416.5z M241,416.5h-40
			V109.271c12.333-6.069,25.804-10.162,40-11.868V416.5z M311,231.104c-12.051,8.083-20,21.827-20,37.396
			c0,15.569,7.949,29.313,20,37.396V416.5h-40V97.403c14.196,1.706,27.667,5.799,40,11.868V231.104z M321,268.5
			c0-8.271,6.729-15,15-15s15,6.729,15,15s-6.729,15-15,15S321,276.771,321,268.5z M381,268.5v148h-40V313.216
			C363.468,310.72,381,291.623,381,268.5c0-23.123-17.532-42.219-40-44.716V129.94c24.588,22.842,40,55.433,40,91.56V268.5z
			 M482,446.5h-71v-381h71V446.5z"/>
	</g>
</g>
<g>
</g>
<g>
</g>
<g>
</g>
<g>
</g>
<g>
</g>
<g>
</g>
<g>
</g>
<g>
</g>
<g>
</g>
<g>
</g>
<g>
</g>
<g>
</g>
<g>
</g>
<g>
</g>
<g>
</g>
</svg>
